<svg width="48.1mm" height="52.334mm" version="1.2" viewBox="0 0 240.5 261.67" xmlns="http://www.w3.org/2000/svg">
 <title>FreeCAD SVG Export</title>
 <desc>Drawing page: Page exported from FreeCAD document: RP2040_TinierTV_V9_other_approach</desc>
 <g id="Page" transform="translate(-1364.8 -917.91)">
  <g id="DrawingContent" fill="none" fill-rule="evenodd" stroke="#B3C5EF" stroke-linecap="square" stroke-linejoin="bevel">
   <g transform="translate(1485,1050)" fill="none" font-family="'MS Shell Dlg 2'" font-size="29.104px" font-weight="400" stroke="#B3C5EF" stroke-linecap="round" stroke-linejoin="bevel" stroke-width="2.5">
    <path d="m-82.006 127.68c.0428-.1-.1-.227-.4284-.381-.3163-.141-.7449-.253-1.079-.295-.6827-.102-1.0633.078-.4879.388m11.623-4.801c-.5268 1.686-1.8632 3.431-3.748 4.408-1.8678 1.006-4.1167 1.156-5.88.681m-1.9953-.288c.326.178.8634.327 1.2491.373.4155.051.6643.023.7462-.085m-3.8672-.751c.595.315 1.2189.47 1.8719.463m32.126-67.643-20.503 62.842m-.0216.092.0216-.092m156.38 4.801c-.326.178-.8634.327-1.2491.373-.4155.051-.6643.023-.7462-.085m3.8672-.751c-.595.315-1.2189.47-1.8719.463m-1.9953.288c-.0428-.1.1-.227.4284-.381.3163-.141.7449-.253 1.079-.295.6827-.102 1.0633.078.4879.388m-11.623-4.801c.5268 1.686 1.8632 3.431 3.748 4.408 1.8678 1.006 4.1167 1.156 5.88.681m-9.6064-4.997-.0216-.092m-20.503-62.842 20.503 62.842m-162.5-4.56c-.5114 2.28.1175 5.204 2.0748 7.231.6319.665 1.355 1.22 2.1695 1.667.3386.184.6646.341.9782.471 1.2692.514 2.3573.784 3.7762.9.4804.039 1.0127.033 1.5966-.016.6917-.059 1.401-.217 2.128-.472 2.427-.836 4.3299-2.951 4.9945-5.129m162.52-4.652c.5114 2.28-.1175 5.204-2.0748 7.231-.6317.665-1.3546 1.22-2.1688 1.666m-158.27-4.247c6.843-20.993 13.684-41.97 20.524-62.932m-38.242 58.282 11.992-58.282m5.7255 62.934 20.524-62.934m124.27 62.932c-6.843-20.993-13.684-41.97-20.524-62.932m33.998 67.18c-.3386.184-.6646.341-.9782.471-1.2692.514-2.3573.784-3.7762.9-.4804.039-1.0127.033-1.5966-.016-.6917-.059-1.401-.217-2.128-.472-2.427-.836-4.3299-2.951-4.9945-5.129m17.718-4.652c.5114 2.28-.1175 5.204-2.0748 7.231-.6319.665-1.355 1.22-2.1695 1.667m-13.474-4.246-20.524-62.934m38.242 58.282-11.992-58.282m-30.125-188.05c0-1.403 1.1372-2.54 2.54-2.54m-2.54 2.54v1.938m-62-1.938c0-1.403 1.1372-2.54 2.54-2.54m-2.54 2.54v1.938m-62-1.938c0-1.403 1.1372-2.54 2.54-2.54m-2.54 2.54v1.938m139.59 25.992c-5.6947 7.4646-4.9898 17.991 1.6493 24.63 6.6392 6.6391 17.165 7.344 24.63 1.6494m-5.1221-14.908c0 3.4518-2.7982 6.25-6.25 6.25s-6.25-2.7982-6.25-6.25 2.7982-6.25 6.25-6.25 6.25 2.7982 6.25 6.25m-15.774-5.9883c-2.7946 4.4445-2.1435 10.231 1.5688 13.943 3.7124 3.7123 9.4988 4.3634 13.943 1.5689l8.9444 8.9444m-5.4089-12.48 8.9445 8.9445m-8.9445-8.9445c2.7946-4.4444 2.1435-10.231-1.5688-13.943-3.7124-3.7127-9.4988-4.3637-13.943-1.5688m-3.5355 3.5355-8.9445-8.9444m12.48 5.4089-8.9444-8.9449m29.84 29.841c2.4924-3.2673 3.8424-7.2628 3.8424-11.372 0-7.1296-4.0434-13.643-10.433-16.805-6.3898-3.162-14.02-2.427-19.689 1.897m35.447 60.483c0 2.4853-2.015 4.5-4.5 4.5-2.4853 0-4.5-2.0147-4.5-4.5s2.0147-4.5 4.5-4.5c2.485 0 4.5 2.0147 4.5 4.5m-39.15 0c0 2.4853-2.0147 4.5-4.5 4.5s-4.5-2.0147-4.5-4.5 2.0147-4.5 4.5-4.5 4.5 2.0147 4.5 4.5m38.075 90.675c2.761 0 5-2.2386 5-5m-55.075 5h50.075m-50.075-63.85v63.85m55.075-63.85h-55.075m55.075 58.85v-58.85m-198.62 45.068v-123.55m123.55 123.55h-123.55m123.55-123.55v123.55m-28.115-123.55h28.115m-123.55 0h95.435m7.7647 20.35c-3.35-3.35-8.175-5.225-15.325-6.475m15.325 89.325c3.35-3.35 5.225-8.175 6.475-15.325 2.5-14.3 2.5-37.9 0-52.2-1.25-7.15-3.125-11.975-6.475-15.325m-82.85 82.85c3.35 3.35 8.175 5.225 15.325 6.475 14.3 2.5 37.9 2.5 52.2 0 7.15-1.25 11.975-3.125 15.325-6.475m-82.85-82.85c-3.35 3.35-5.225 8.175-6.475 15.325-2.5 14.3-2.5 37.9 0 52.2 1.25 7.15 3.125 11.975 6.475 15.325m67.525-89.325c-14.3-2.5-37.9-2.5-52.2 0-7.15 1.25-11.975 3.125-15.325 6.475m168.74.6647c3.4177-4.2266 5.2817-9.4974 5.2817-14.933m-8.8173 18.468c1.2996-1.0508 2.4847-2.2359 3.5356-3.5355m-36.937-29.865c-7.6386 9.4471-6.9161 23.136 1.6745 31.726 8.5906 8.5906 22.279 9.3131 31.726 1.6744m-29.865-36.937c-1.2996 1.051-2.4847 2.236-3.5356 3.536m42.218 14.933c0-9.1519-5.2585-17.49-13.517-21.433-8.259-3.943-18.049-2.79-25.165 2.964m44.508 64.044c0 5.5228-4.477 10-10 10-5.5228 0-10-4.4772-10-10 0-5.5229 4.4772-10 10-10 5.523 0 10 4.4771 10 10m-39.15 0c0 5.5228-4.4772 10-10 10s-10-4.4772-10-10c0-5.5229 4.4772-10 10-10s10 4.4771 10 10m42.575 85.675v-63.85m-65.075 0h65.075m-65.075 73.85v-73.85m55.075 73.85h-55.075m55.075 0c5.523 0 10-4.4772 10-10m-72.575-144.83h-138.55m138.55 138.55v-138.55m-138.55 0v138.55h138.55m67.575 23.782c6.904 0 12.5-5.5965 12.5-12.5m-12.5 12.5h-213m225.5-171.11v158.61m0-158.61c0-8.285-6.716-15-15-15m-223 173.61v-158.61m15-15h208m-208 0c-8.284 0-15 6.715-15 15m0 158.61c0 6.9035 5.596 12.5 12.5 12.5m157.04-190.59h22.92m2.54 2.54c0-1.403-1.1372-2.54-2.54-2.54m2.54 4.478v-1.938m-87.46-2.54h22.92-22.92m25.46 2.54c0-1.403-1.1372-2.54-2.54-2.54m2.54 4.478v-1.938m-87.46-2.54h22.92m2.54 2.54c0-1.403-1.1372-2.54-2.54-2.54m2.54 4.478v-1.938"/>
   </g>
  </g>
 </g>
</svg>
