<svg width="73.7mm" height="94.892mm" version="1.2" viewBox="0 0 368.5 474.46" xmlns="http://www.w3.org/2000/svg">
 <title>FreeCAD SVG Export</title>
 <desc>Drawing page: Page exported from FreeCAD document: RP2040_TinyTV_Case_V8</desc>
 <g id="Page" transform="translate(-1300.8 -811.43)">
  <g id="DrawingContent" fill="none" fill-rule="evenodd" stroke="#B3C5EF" stroke-linecap="square" stroke-linejoin="bevel">
   <g transform="translate(1485,1050)" fill="none" font-family="'MS Shell Dlg 2'" font-size="29.104px" font-weight="400" stroke="#B3C5EF" stroke-linecap="round" stroke-linejoin="bevel" stroke-width="2.5">
    <path d="m105.5-213.32v-1.5m-28.75-20c0-1.381 1.1193-2.5 2.5-2.5m1.25 24v-1.5m34.2 448.86c-.073-.1.371-.266.681-.279.304-.03.561.043.361.178m-10.885-6.045c.403 1.828 1.675 3.794 3.611 4.981 1.914 1.217 4.313 1.543 6.232 1.165m1.042-.101c-.133.09-.419.158-.62.171-.224.018-.365-.006-.422-.07m4.324-1.088c-.988.686-2.165.991-3.282.987m-234.77-.987c.988.686 2.165.991 3.282.987m1.042.101c.073-.1-.371-.266-.681-.279-.304-.03-.561.043-.361.178m10.885-6.045c-.403 1.828-1.675 3.794-3.611 4.981-1.914 1.217-4.313 1.543-6.232 1.165m196.75-103.36 22.806 97.22m.015.091-.015-.091m.051.204-.036-.113m-209.74 0 .015-.091m-.051.204.036-.113m22.82-97.311-22.806 97.22m227.52-3.318c.408 2.388-.375 5.367-2.436 7.373-.372.37-.773.703-1.202.999-.796.525-1.53.895-2.201 1.111-1.125.378-2.026.537-3.209.571-.45.013-.95-.018-1.5-.091-.749-.099-1.519-.316-2.31-.651-2.545-1.068-4.42-3.51-4.932-5.903m-223.9 4.963c.796.525 1.53.895 2.201 1.111 1.125.378 2.026.537 3.209.571.45.013.95-.018 1.5-.091.749-.099 1.519-.316 2.31-.651 2.545-1.068 4.42-3.51 4.932-5.903m-17.79-3.409c-.408 2.388.375 5.367 2.436 7.373.372.37.773.703 1.202.999m241.69-8.372c.408 2.388-.375 5.367-2.436 7.373-.37.368-.77.7-1.197.995m3.633-8.367-14.36-93.903m-3.43 97.311-22.82-97.311m-186.92 97.311 22.82-97.311m-40.61 93.903 14.36-93.903m-14.36 93.902c-.408 2.388.375 5.367 2.436 7.373.372.37.773.703 1.202.999.796.525 1.53.895 2.201 1.111 1.125.378 2.026.537 3.209.571.45.013.95-.018 1.5-.091.749-.099 1.519-.316 2.31-.651 2.545-1.068 4.42-3.51 4.932-5.903m-3.616-167.31c0 9.665-7.835 17.5-17.5 17.5s-17.5-7.835-17.5-17.5 7.835-17.5 17.5-17.5 17.5 7.835 17.5 17.5m10 0c0 15.188-12.312 27.5-27.5 27.5s-27.5-12.312-27.5-27.5 12.312-27.5 27.5-27.5 27.5 12.312 27.5 27.5m207.74-295.5c0-1.381-1.119-2.5-2.5-2.5m2.5 10v-7.5m0 21.5v-1.5m-3.75-22.5h1.25m-26.25 0h25-25m-1.25 0h1.25m-3.75 2.5c0-1.381 1.1193-2.5 2.5-2.5m-2.5 10v-7.5m0 21.5v-1.5m66.738 275.5c0 9.665-7.835 17.5-17.5 17.5s-17.5-7.835-17.5-17.5 7.835-17.5 17.5-17.5 17.5 7.835 17.5 17.5m10 0c0 15.188-12.312 27.5-27.5 27.5s-27.5-12.312-27.5-27.5 12.312-27.5 27.5-27.5 27.5 12.312 27.5 27.5m-142.76-56.954h-21.449m-159.78-190.05h1.5m0 12.5h-1.5m1.5 125h-1.5m0 12.5h1.5m0 47.028c-.582-1.2482-1.083-2.5326-1.5-3.8453m0-19.365c.417-1.3127.918-2.5971 1.5-3.8452m99.025 134.53v-1.5m-54.025 0v1.5m193.98 0v-1.5m54.025 0v1.5m45-107.47c.582-1.2482 1.083-2.5326 1.5-3.8453m0-19.365c-.417-1.3127-.918-2.5971-1.5-3.8452m1.5-19.972h-1.5m0-12.5h1.5m-1.5-125h1.5m0-12.5h-1.5m0-3h1.5m-25.5-25.5v1.5m-314 24h-1.5m25.5-25.5v1.5m-4-1.5c-11.874 0-21.5 9.626-21.5 21.5m0 265v-265m0 265c0 25.681 20.819 46.5 46.5 46.5m248 0h-248m248 0c25.681 0 46.5-20.819 46.5-46.5m0-265v265m0-265c0-11.874-9.626-21.5-21.5-21.5m-298 0h298m-332 21.5v265m366 0c0 32.585-26.415 59-59 59m-307-324c0-18.778 15.222-34 34-34m332 299v-265m-34-34h-298m298 0c18.778 0 34 15.222 34 34m-307 324c-32.585 0-59-26.415-59-59m59 59h248m-72.25-95.5c5.5228 0 10 4.4772 10 10m0 25v-25m0 25c0 5.5229-4.4772 10-10 10m-103.5 0h103.5m-103.5 0c-5.5228 0-10-4.4771-10-10m0-25v25m0-25c0-5.5228 4.4772-10 10-10m103.5 0h-103.5m120 10v25m0-25c0-9.1127-7.3873-16.5-16.5-16.5m0 58c9.1127 0 16.5-7.3873 16.5-16.5m-120-41.5h103.5m0 58h-103.5m0-58c-9.1127 0-16.5 7.3873-16.5 16.5m0 25c0 9.1127 7.3873 16.5 16.5 16.5m-16.5-16.5v-25m78.975-54.5v13c0 1.1046-.89545 2-2 2m-17.45 0c-1.1046 0-2-.89544-2-2m0-13v13m159.72-13c11.046 0 20-8.9543 20-20m-20 20h-298m-20-20c0 11.046 8.954 20 20 20m127.25 0v7.5c0 4.1421 3.3579 7.5 7.5 7.5h28.5c4.1421 0 7.5-3.3579 7.5-7.5m0-7.5v7.5m102.25 118.5c24.853 0 45-20.147 45-45m-45 45h-248m-25-321.5c-6.351 0-11.5 5.149-11.5 11.5m0 164v-164m0 164c0 6.3513 5.149 11.5 11.5 11.5m298 0h-298m298 0c6.351 0 11.5-5.1487 11.5-11.5m0-164v164m0-164c0-6.351-5.149-11.5-11.5-11.5m-298 0h298m20 175.5v101m0-265v164m0-164c0-11.046-8.954-20-20-20m-298 0h298m-298 0c-11.046 0-20 8.954-20 20m0 265c0 24.853 20.147 45 45 45m-45-146v-164m0 265v-101m70.774-144.04c-3.0405 2.176-5.0235 5.007-6.3925 8.586-2.216 5.817-2.845 13.684-3.141 22.959-.265 9.251-.197 19.857-.211 30.49.014 10.633-.054 21.239.211 30.49.296 9.2752.925 17.142 3.141 22.96 1.324 3.4623 3.225 6.2257 6.1002 8.3721 3.1857 2.3861 7.6471 4.0425 13.618 5.2578 5.9546 1.2123 13.407 1.9834 22.126 2.5194 17.374 1.0454 39.979 1.2502 62.773 1.2738 22.794-.0236 45.399-.2284 62.773-1.2738 8.7193-.536 16.172-1.3071 22.126-2.5194 5.9712-1.2153 10.433-2.8717 13.618-5.2578 2.8752-2.1464 4.7762-4.9098 6.1002-8.3721 2.216-5.8177 2.845-13.684 3.141-22.96.265-9.2506.197-19.857.211-30.49-.014-10.633.054-21.239-.211-30.49-.296-9.275-.925-17.142-3.141-22.959-1.324-3.463-3.225-6.226-6.1002-8.372-3.1738-2.378-7.6133-4.031-13.551-5.245-5.9213-1.211-13.329-1.983-21.997-2.521-17.272-1.049-39.748-1.257-62.455-1.285-22.707.018-45.274.217-62.695 1.237-8.7415.523-16.236 1.276-22.244 2.461-6.0251 1.187-10.553 2.806-13.801 5.139"/>
   </g>
  </g>
 </g>
</svg>
